Coordinates
version=1
nRows=12
nColumns=33
inDegrees=yes

Units are S.I. units (second, meters, Newtons, ...)
Angles are in degrees.

endheader
time	ground_thorax_rot_x	ground_thorax_rot_y	ground_thorax_rot_z	ground_thorax_tx	ground_thorax_ty	ground_thorax_tz	clav_prot_r	clav_elev_r	scapula_abduction_r	scapula_elevation_r	scapula_upward_rot_r	scapula_winging_r	shoulder_elv_r	plane_of_elev_r	axial_rot_r	elbow_flexion_r	pro_sup_r	wrist_flex_r	wrist_dev_r	clav_prot_l	clav_elev_l	scapula_abduction_l	scapula_elevation_l	scapula_upward_rot_l	scapula_winging_l	shoulder_elv_l	plane_of_elev_l	axial_rot_l	elbow_flexion_l	pro_sup_l	wrist_flex_l	wrist_dev_l
      4.79000000	    -33.23224772	    -25.46656446	     30.29778095	    -54.95083380	    834.50819759	    -48.32031410	     28.69792225	    -45.00000000	     39.63379738	    -45.00000000	    -45.00000000	  -1547.52752364	  -2082.97703746	     20.91781139	   -145.78118173	    359.25408685	    158.71504669	     13.55632878	     14.13314580	     -1.03161951	     32.53199231	    -30.62668686	    -45.00000000	    -45.00000000	  -2792.02959817	   1351.86254080	    133.17188473	   -106.50853041	   2149.62454025	   -319.34571560	     13.86768070	    -17.83350093
      4.80000000	    -33.28446018	    -25.40701107	     30.08905407	    -55.96754229	    836.25639479	    -48.47437998	     28.70393017	    -45.00000000	     39.61452519	    -45.00000000	    -45.00000000	  -1547.57390221	  -2082.95342718	     20.99770966	   -145.97618503	    359.24990444	    158.20866006	     13.60481861	     14.09411815	     -1.03528829	     32.59405896	    -30.70533010	    -45.00000000	    -45.00000000	  -2791.91978013	   1351.94081011	    133.10644380	   -106.32794207	   2149.61588679	   -319.53488648	     13.91899204	    -17.98806475
      4.81000000	    -33.57615026	    -25.18052769	     29.54518651	    -56.94141849	    837.99475786	    -48.62425994	     28.60836368	    -45.00000000	     39.55749722	    -45.00000000	    -45.00000000	  -1547.58154591	  -2083.14689985	     21.18676931	   -146.04652439	    359.32504288	    157.80489141	     13.65732213	     14.07257733	     -1.05265255	     32.59547731	    -31.10155920	    -45.00000000	    -45.00000000	  -2791.48105696	   1351.94848791	    132.88121739	   -106.00842748	   2149.56568830	   -319.71940890	     14.14407193	    -18.35374656
      4.82000000	    -33.33673630	    -25.25957502	     29.62934813	    -57.87441063	    839.72154990	    -48.77094591	     28.50031375	    -45.00000000	     39.89331804	    -45.00000000	    -45.00000000	  -1547.75356172	  -2082.95738233	     21.04626930	   -146.39962332	    359.10005042	    157.41658189	     13.72154877	     14.08613696	     -0.99318008	     32.69335053	    -30.85319592	    -45.00000000	    -45.00000000	  -2791.81689540	   1352.04511449	    133.05281367	   -105.89527568	   2149.61327208	   -319.88617633	     13.98378557	    -18.27804092
      4.83000000	    -33.40202214	    -25.23787642	     29.46919710	    -58.76851502	    841.43290095	    -48.91523797	     28.61192189	    -45.00000000	     39.76076418	    -45.00000000	    -45.00000000	  -1547.70176714	  -2082.93083190	     21.14241632	   -146.52536022	    359.15167241	    157.03980778	     13.77457947	     14.01680052	     -1.12362596	     32.67570357	    -30.90819102	    -45.00000000	    -45.00000000	  -2791.66979024	   1352.13501489	    132.98612158	   -105.84368664	   2149.63773637	   -320.07241797	     14.06947767	    -18.47628427
      4.84000000	    -33.63184061	    -24.92787922	     29.00202715	    -59.62065533	    843.11186276	    -49.05682961	     28.41804563	    -45.00000000	     39.66424602	    -45.00000000	    -45.00000000	  -1547.80320118	  -2082.99071728	     21.32910335	   -146.56167721	    359.12888257	    156.75552324	     13.89751101	     13.99095850	     -1.06158727	     32.71357787	    -31.33338674	    -45.00000000	    -45.00000000	  -2791.28041294	   1352.10088540	    132.77670784	   -105.54042006	   2149.56789364	   -320.23308143	     14.25316999	    -18.83354538
      4.85000000	    -33.34111539	    -25.14454333	     29.16251999	    -60.43916385	    844.76070957	    -49.19671619	     28.39977421	    -45.00000000	     40.06652171	    -45.00000000	    -45.00000000	  -1547.88062170	  -2082.87875068	     21.15019395	   -147.08065778	    359.02340642	    156.47911155	     13.98296718	     13.95144140	     -1.07265837	     32.78178307	    -30.94459318	    -45.00000000	    -45.00000000	  -2791.63865305	   1352.24317623	    132.95173578	   -105.51510306	   2149.63031573	   -320.35429705	     14.07819115	    -18.75080587
      4.86000000	    -33.59187014	    -24.96425095	     28.76786320	    -61.22692361	    846.37074739	    -49.33442058	     28.51708901	    -45.00000000	     39.76599721	    -45.00000000	    -45.00000000	  -1547.84531284	  -2082.92923466	     21.40691258	   -146.97753124	    359.10802144	    156.34110377	     14.08370239	     13.92865220	     -1.19950950	     32.74834624	    -31.29599424	    -45.00000000	    -45.00000000	  -2791.25472485	   1352.28403908	    132.77682501	   -105.38013194	   2149.60620210	   -320.46832655	     14.25591987	    -19.11940620
      4.87000000	    -33.46441150	    -24.92786295	     28.71930503	    -61.98405938	    847.92935060	    -49.46878212	     28.19781309	    -45.00000000	     39.99252605	    -45.00000000	    -45.00000000	  -1547.98969167	  -2082.82473894	     21.32411216	   -147.23245879	    358.92513240	    156.21678279	     14.27837310	     13.89128323	     -1.05229840	     32.84781403	    -31.23247592	    -45.00000000	    -45.00000000	  -2791.41637840	   1352.30022325	    132.85726936	   -105.21767146	   2149.64659811	   -320.53551573	     14.14807701	    -19.18430863
      4.88000000	    -33.56498440	    -24.78122968	     28.43208098	    -62.71556358	    849.43497875	    -49.59912387	     28.44296898	    -45.00000000	     39.89436071	    -45.00000000	    -45.00000000	  -1548.00722669	  -2082.84536723	     21.49395570	   -147.42226593	    359.00457934	    156.17332066	     14.37554718	     13.89367828	     -1.30920220	     32.77247918	    -31.41875116	    -45.00000000	    -45.00000000	  -2791.13767472	   1352.34509869	    132.60130692	   -105.10379199	   2149.61888324	   -320.56788632	     14.30444835	    -19.52299460
      4.89000000	    -33.42643583	    -24.87706142	     28.48906420	    -63.42089493	    850.87881958	    -49.72407388	     28.16121171	    -45.00000000	     40.07564678	    -45.00000000	    -45.00000000	  -1548.05659966	  -2082.72963454	     21.36223129	   -147.62814547	    358.88815735	    156.19401469	     14.56354060	     13.82698747	     -1.05436391	     32.92123399	    -31.24803381	    -45.00000000	    -45.00000000	  -2791.43136084	   1352.41143989	    132.88435176	   -105.02474298	   2149.70434421	   -320.56392696	     14.08155975	    -19.49555071
      4.90000000	    -33.43048491	    -24.83049905	     28.37018419	    -64.10059446	    852.25721625	    -49.84283865	     28.21158855	    -45.00000000	     39.98763782	    -45.00000000	    -45.00000000	  -1548.08160476	  -2082.63164758	     21.43998910	   -147.73756890	    358.86537288	    156.30624587	     14.68410870	     13.80119198	     -1.24910324	     32.86079908	    -31.26882698	    -45.00000000	    -45.00000000	  -2791.33987046	   1352.47478372	    132.80169062	   -104.96956284	   2149.73144809	   -320.50162879	     14.12160528	    -19.70302170
